<?xml version="1.0" encoding="UTF-8" standalone="no"?>
<!-- Created with Inkscape (http://www.inkscape.org/) -->

<svg
   xmlns:dc="http://purl.org/dc/elements/1.1/"
   xmlns:cc="http://creativecommons.org/ns#"
   xmlns:rdf="http://www.w3.org/1999/02/22-rdf-syntax-ns#"
   xmlns:svg="http://www.w3.org/2000/svg"
   xmlns="http://www.w3.org/2000/svg"
   xmlns:sodipodi="http://sodipodi.sourceforge.net/DTD/sodipodi-0.dtd"
   xmlns:inkscape="http://www.inkscape.org/namespaces/inkscape"
   width="250"
   height="30"
   viewBox="0 0 66.145835 7.9374997"
   version="1.1"
   id="svg8"
   sodipodi:docname="mtelogo.svg"
   inkscape:version="0.92.2 2405546, 2018-03-11">
  <defs
     id="defs2" />
  <sodipodi:namedview
     id="base"
     pagecolor="#ffffff"
     bordercolor="#666666"
     borderopacity="1"
     inkscape:pageopacity="0.0"
     inkscape:pageshadow="2"
     inkscape:zoom="1.01"
     inkscape:cx="397.81967"
     inkscape:cy="-312.77228"
     inkscape:document-units="mm"
     inkscape:current-layer="layer1"
     showgrid="false"
     units="px"
     inkscape:window-width="1920"
     inkscape:window-height="1030"
     inkscape:window-x="1600"
     inkscape:window-y="25"
     inkscape:window-maximized="1" />
  <metadata
     id="metadata5">
    <rdf:RDF>
      <cc:Work
         rdf:about="">
        <dc:format>image/svg+xml</dc:format>
        <dc:type
           rdf:resource="http://purl.org/dc/dcmitype/StillImage" />
        <dc:title></dc:title>
      </cc:Work>
    </rdf:RDF>
  </metadata>
  <g
     inkscape:label="Layer 1"
     inkscape:groupmode="layer"
     id="layer1"
     transform="translate(0,-289.0625)">
    <g
       aria-label="maketecheasier"
       transform="matrix(0.26458333,0,0,0.26458333,-3.1488036,262.48762)"
       style="font-style:normal;font-variant:normal;font-weight:800;font-stretch:normal;font-size:26.66666794px;line-height:1.25;font-family:Foco;-inkscape-font-specification:'Foco Ultra-Bold';letter-spacing:0px;word-spacing:0px;opacity:1;fill:#000000;fill-opacity:1;stroke:none"
       id="flowRoot815">
      <path
         d="m 21.253157,127.65223 h -4.749334 v -16.39734 q 0.173333,-0.0347 0.416,-0.0693 0.208,-0.0347 0.485333,-0.0347 0.277334,-0.0347 0.658667,-0.0347 1.109333,0 1.906667,0.416 0.832,0.38134 1.04,1.38667 0.589333,-0.79733 1.802667,-1.456 1.248,-0.69333 3.293333,-0.69333 1.941333,0 2.877333,0.69333 0.970667,0.69333 1.421334,1.62933 0.728,-0.90133 2.010667,-1.59466 1.282666,-0.728 3.258666,-0.728 1.248,0 2.114667,0.27733 0.901333,0.27733 1.490667,0.76267 0.624,0.48533 0.936,1.144 0.346667,0.624 0.450667,1.352 0.138666,0.79733 0.173333,1.73333 0.06933,0.936 0.06933,1.83734 v 9.776 H 36.19449 v -9.568 q 0,-0.76267 -0.03467,-1.38667 -0.03467,-0.624 -0.277334,-1.07467 -0.208,-0.45066 -0.693333,-0.69333 -0.450667,-0.24267 -1.282667,-0.24267 -0.901333,0 -1.733333,0.416 -0.797333,0.416 -1.109333,0.90134 0.104,1.00533 0.104,2.04533 v 9.60267 h -4.714667 v -9.568 q 0,-0.76267 -0.03467,-1.42134 -0.03467,-0.65866 -0.277333,-1.10933 -0.242667,-0.48533 -0.728,-0.728 -0.485334,-0.27733 -1.386667,-0.27733 -1.213333,0 -2.010667,0.55466 -0.762666,0.52 -0.762666,1.31734 z"
         style="font-size:34.66666794px;fill:#f07974;fill-opacity:1"
         id="path4557"
         inkscape:connector-curvature="0" />
      <path
         d="m 58.832909,123.63089 q 0,2.73867 0.797333,3.98667 -0.624,0.24267 -1.178667,0.34667 -0.52,0.104 -1.109333,0.104 -1.248,0 -1.906667,-0.48534 -0.624,-0.48533 -0.797333,-1.38666 -0.762667,0.79733 -2.010667,1.352 -1.248,0.55466 -3.050667,0.55466 -0.936,0 -1.872,-0.27733 -0.936,-0.24267 -1.698666,-0.832 -0.762667,-0.58933 -1.248,-1.56 -0.485334,-1.00533 -0.485334,-2.42667 0,-1.768 0.832,-2.87733 0.866667,-1.10933 2.149334,-1.73333 1.282666,-0.65867 2.773333,-0.90134 1.490667,-0.24266 2.738667,-0.312 0.416,-0.0347 0.797333,-0.0347 0.416,0 0.762667,0 v -0.624 q 0,-1.31734 -0.728,-1.872 -0.693333,-0.55467 -2.288,-0.55467 -1.490667,0 -2.669334,0.48533 -1.144,0.48534 -2.253333,1.10934 -0.485333,-0.58934 -0.797333,-1.28267 -0.277334,-0.728 -0.277334,-1.07467 0,-0.48533 0.52,-0.936 0.554667,-0.45067 1.490667,-0.79733 0.936,-0.38134 2.149333,-0.58934 1.213334,-0.24266 2.565334,-0.24266 1.872,0 3.154667,0.38133 1.317333,0.38133 2.114666,1.17867 0.832,0.79733 1.178667,2.01067 0.346667,1.17866 0.346667,2.77333 z m -4.437334,-4.02133 q -0.242666,0 -0.485333,0 -0.242667,0 -0.485333,0.0347 -0.866667,0.0693 -1.733334,0.208 -0.832,0.13866 -1.490667,0.48533 -0.658666,0.34667 -1.074666,0.90133 -0.416,0.55467 -0.416,1.42134 0,0.97066 0.554666,1.664 0.554667,0.65866 1.872,0.65866 0.658667,0 1.248,-0.17333 0.589334,-0.17333 1.040001,-0.45067 0.450666,-0.27733 0.693333,-0.58933 0.277333,-0.34667 0.277333,-0.624 z"
         style="font-size:34.66666794px;fill:#f07974;fill-opacity:1"
         id="path4559"
         inkscape:connector-curvature="0" />
      <path
         d="m 68.767617,121.03089 q -0.277333,-0.34666 -0.485333,-0.76266 -0.208,-0.45067 -0.277333,-0.97067 v 8.35467 h -4.714667 v -24.44001 q 0,-0.0347 0.52,-0.0693 0.52,-0.0693 1.074667,-0.0693 0.554666,0 1.109333,0.104 0.554667,0.104 1.005333,0.416 0.450667,0.312 0.728,0.86666 0.277334,0.52 0.277334,1.38667 v 12.41067 q 0.208,-0.936 0.901333,-1.73333 l 3.674667,-4.19467 q 0.589333,-0.69334 1.178667,-1.07467 0.624,-0.38133 1.490666,-0.38133 0.901334,0 1.594667,0.34666 0.728,0.312 1.386667,0.832 l -5.650667,6.51734 6.482667,8.59733 q -0.485334,0.34667 -1.213334,0.58934 -0.728,0.24266 -1.525333,0.24266 -1.248,0 -2.08,-0.38133 -0.832,-0.416 -1.629333,-1.42133 z"
         style="font-size:34.66666794px;fill:#f07974;fill-opacity:1"
         id="path4561"
         inkscape:connector-curvature="0" />
      <path
         d="m 89.016202,124.70556 q 0.866667,0 1.525334,-0.17333 0.658666,-0.208 1.178666,-0.48534 0.52,-0.27733 0.901334,-0.58933 0.381333,-0.34667 0.693333,-0.624 0.416,0.52 0.866667,1.352 0.450666,0.79733 0.450666,1.31733 0,0.76267 -0.866666,1.38667 -0.728,0.55467 -2.08,0.936 -1.317334,0.416 -3.120001,0.416 -1.629333,0 -3.224,-0.416 -1.56,-0.416 -2.808,-1.456 -1.213333,-1.04 -1.976,-2.77333 -0.762667,-1.768 -0.762667,-4.43734 0,-2.184 0.658667,-3.744 0.693334,-1.59467 1.802667,-2.63467 1.144,-1.04 2.565333,-1.52533 1.421334,-0.48533 2.912,-0.48533 1.941334,0 3.293334,0.624 1.352,0.58933 2.184,1.62933 0.866667,1.00533 1.248,2.32267 0.381333,1.31733 0.381333,2.77333 0,0.208 0,0.48534 0,0.27733 -0.03467,0.58933 0,0.312 -0.03467,0.624 0,0.27733 -0.03467,0.45067 h -10.192 q 0.138667,1.90666 1.178667,3.18933 1.04,1.248 3.293333,1.248 z m 1.56,-7.03733 q 0,-1.664 -0.658667,-2.704 -0.624,-1.04001 -2.288,-1.04001 -1.421333,0 -2.288,1.00534 -0.832,0.97067 -0.832,2.73867 z"
         style="font-size:34.66666794px;fill:#f07974;fill-opacity:1"
         id="path4563"
         inkscape:connector-curvature="0" />
      <path
         d="m 98.538161,125.15623 q -0.242666,-0.69334 -0.312,-1.456 -0.06933,-0.76267 -0.06933,-1.52534 v -16.08533 q 0.242667,-0.0347 0.52,-0.0693 0.242667,-0.0347 0.52,-0.0347 0.277333,-0.0347 0.554667,-0.0347 0.554662,0 1.109332,0.104 0.55466,0.104 1.00533,0.416 0.45067,0.312 0.728,0.86667 0.27733,0.52 0.27733,1.38666 v 2.42667 h 4.85334 v 3.536 h -4.85334 v 7.41867 q 0,2.42667 1.976,2.42667 0.48534,0 0.90134,-0.13867 0.45067,-0.17333 0.79733,-0.34667 0.34667,-0.208 0.58934,-0.416 0.27733,-0.208 0.38133,-0.312 0.52,0.76267 0.79733,1.31734 0.27734,0.55466 0.27734,1.04 0,0.45066 -0.38134,0.90133 -0.34666,0.416 -1.00533,0.79733 -0.65867,0.34667 -1.59467,0.55467 -0.936,0.24267 -2.04533,0.24267 -2.14934,0 -3.36267,-0.832 -1.178662,-0.832 -1.663996,-2.184 z"
         style="font-size:34.66666794px;fill:#fde68e;fill-opacity:1"
         id="path4565"
         inkscape:connector-curvature="0" />
      <path
         d="m 119.34953,124.70556 q 0.86667,0 1.52534,-0.17333 0.65866,-0.208 1.17866,-0.48534 0.52,-0.27733 0.90134,-0.58933 0.38133,-0.34667 0.69333,-0.624 0.416,0.52 0.86667,1.352 0.45066,0.79733 0.45066,1.31733 0,0.76267 -0.86666,1.38667 -0.728,0.55467 -2.08,0.936 -1.31734,0.416 -3.12,0.416 -1.62934,0 -3.224,-0.416 -1.56,-0.416 -2.808,-1.456 -1.21334,-1.04 -1.976,-2.77333 -0.76267,-1.768 -0.76267,-4.43734 0,-2.184 0.65867,-3.744 0.69333,-1.59467 1.80266,-2.63467 1.144,-1.04 2.56534,-1.52533 1.42133,-0.48533 2.912,-0.48533 1.94133,0 3.29333,0.624 1.352,0.58933 2.184,1.62933 0.86667,1.00533 1.248,2.32267 0.38133,1.31733 0.38133,2.77333 0,0.208 0,0.48534 0,0.27733 -0.0347,0.58933 0,0.312 -0.0347,0.624 0,0.27733 -0.0347,0.45067 h -10.192 q 0.13867,1.90666 1.17867,3.18933 1.04,1.248 3.29333,1.248 z m 1.56,-7.03733 q 0,-1.664 -0.65866,-2.704 -0.624,-1.04001 -2.288,-1.04001 -1.42134,0 -2.288,1.00534 -0.832,0.97067 -0.832,2.73867 z"
         style="font-size:34.66666794px;fill:#fde68e;fill-opacity:1"
         id="path4567"
         inkscape:connector-curvature="0" />
      <path
         d="m 136.91416,124.67089 q 0.76267,0 1.38667,-0.17333 0.624,-0.17333 1.10933,-0.416 0.48534,-0.27733 0.832,-0.55467 0.34667,-0.312 0.52,-0.52 0.38134,0.416 0.76267,1.21334 0.416,0.79733 0.416,1.352 0,0.34666 -0.13867,0.69333 -0.13866,0.312 -0.58933,0.65867 -0.65867,0.48533 -1.872,0.90133 -1.21333,0.416 -3.08533,0.416 -1.248,0 -2.704,-0.34667 -1.456,-0.34666 -2.704,-1.31733 -1.248,-0.97067 -2.08,-2.66933 -0.832,-1.73334 -0.832,-4.50667 0,-2.63467 0.86666,-4.29867 0.86667,-1.664 2.14934,-2.63467 1.28266,-0.97066 2.704,-1.31733 1.456,-0.38133 2.6,-0.38133 1.42133,0 2.63466,0.312 1.21334,0.312 2.01067,0.832 0.65867,0.416 0.90133,0.79733 0.27734,0.38133 0.27734,0.90133 0,0.48534 -0.312,1.21334 -0.312,0.69333 -0.79734,1.28267 -0.55466,-0.58934 -1.62933,-1.17867 -1.07467,-0.58933 -2.392,-0.58933 -2.288,0 -3.25867,1.42133 -0.97066,1.38667 -0.97066,3.57067 0,1.10933 0.208,2.08 0.208,0.97066 0.69333,1.69866 0.52,0.728 1.31733,1.144 0.79734,0.416 1.976,0.416 z"
         style="font-size:34.66666794px;fill:#fde68e;fill-opacity:1"
         id="path4569"
         inkscape:connector-curvature="0" />
      <path
         d="m 155.31025,118.08423 q 0,-0.76267 -0.0693,-1.42134 -0.0347,-0.65866 -0.27733,-1.10933 -0.208,-0.48533 -0.728,-0.728 -0.48533,-0.27733 -1.38667,-0.27733 -1.28267,0 -2.21867,0.55466 -0.90133,0.52 -0.90133,1.31734 v 11.232 h -4.71467 v -24.44001 q 0,-0.0347 0.52,-0.0693 0.52,-0.0693 1.07467,-0.0693 0.55467,0 1.10933,0.104 0.55467,0.104 1.00534,0.416 0.45066,0.27733 0.728,0.832 0.27733,0.52 0.27733,1.38666 v 6.89867 q 0.27733,-0.312 0.69333,-0.65867 0.416,-0.34666 1.00534,-0.624 0.58933,-0.312 1.352,-0.48533 0.79733,-0.17333 1.80267,-0.17333 2.46133,0 3.64,0.97066 1.17866,0.97067 1.52533,2.56534 0.17333,0.79733 0.208,1.73333 0.0693,0.936 0.0693,1.83734 v 9.776 h -4.71466 z"
         style="font-size:34.66666794px;fill:#fde68e;fill-opacity:1"
         id="path4571"
         inkscape:connector-curvature="0" />
      <path
         d="m 172.97454,124.70556 q 0.86667,0 1.52534,-0.17333 0.65866,-0.208 1.17866,-0.48534 0.52,-0.27733 0.90134,-0.58933 0.38133,-0.34667 0.69333,-0.624 0.416,0.52 0.86667,1.352 0.45066,0.79733 0.45066,1.31733 0,0.76267 -0.86666,1.38667 -0.728,0.55467 -2.08,0.936 -1.31734,0.416 -3.12,0.416 -1.62934,0 -3.224,-0.416 -1.56001,-0.416 -2.80801,-1.456 -1.21333,-1.04 -1.976,-2.77333 -0.76266,-1.768 -0.76266,-4.43734 0,-2.184 0.65866,-3.744 0.69334,-1.59467 1.80267,-2.63467 1.144,-1.04 2.56533,-1.52533 1.42134,-0.48533 2.91201,-0.48533 1.94133,0 3.29333,0.624 1.352,0.58933 2.184,1.62933 0.86667,1.00533 1.248,2.32267 0.38133,1.31733 0.38133,2.77333 0,0.208 0,0.48534 0,0.27733 -0.0347,0.58933 0,0.312 -0.0347,0.624 0,0.27733 -0.0347,0.45067 h -10.192 q 0.13867,1.90666 1.17867,3.18933 1.04,1.248 3.29333,1.248 z m 1.56,-7.03733 q 0,-1.664 -0.65866,-2.704 -0.624,-1.04001 -2.288,-1.04001 -1.42134,0 -2.288,1.00534 -0.83201,0.97067 -0.83201,2.73867 z"
         style="font-size:34.66666794px;fill:#a8d379;fill-opacity:1"
         id="path4573"
         inkscape:connector-curvature="0" />
      <path
         d="m 195.73917,123.63089 q 0,2.73867 0.79734,3.98667 -0.624,0.24267 -1.17867,0.34667 -0.52,0.104 -1.10933,0.104 -1.248,0 -1.90667,-0.48534 -0.624,-0.48533 -0.79733,-1.38666 -0.76267,0.79733 -2.01067,1.352 -1.248,0.55466 -3.05067,0.55466 -0.936,0 -1.872,-0.27733 -0.936,-0.24267 -1.69867,-0.832 -0.76266,-0.58933 -1.248,-1.56 -0.48533,-1.00533 -0.48533,-2.42667 0,-1.768 0.832,-2.87733 0.86667,-1.10933 2.14933,-1.73333 1.28267,-0.65867 2.77334,-0.90134 1.49067,-0.24266 2.73867,-0.312 0.416,-0.0347 0.79733,-0.0347 0.416,0 0.76267,0 v -0.624 q 0,-1.31734 -0.728,-1.872 -0.69334,-0.55467 -2.288,-0.55467 -1.49067,0 -2.66934,0.48533 -1.144,0.48534 -2.25333,1.10934 -0.48534,-0.58934 -0.79734,-1.28267 -0.27733,-0.728 -0.27733,-1.07467 0,-0.48533 0.52,-0.936 0.55467,-0.45067 1.49067,-0.79733 0.936,-0.38134 2.14933,-0.58934 1.21334,-0.24266 2.56534,-0.24266 1.872,0 3.15466,0.38133 1.31734,0.38133 2.11467,1.17867 0.832,0.79733 1.17867,2.01067 0.34666,1.17866 0.34666,2.77333 z m -4.43733,-4.02133 q -0.24267,0 -0.48533,0 -0.24267,0 -0.48534,0.0347 -0.86666,0.0693 -1.73333,0.208 -0.832,0.13866 -1.49067,0.48533 -0.65866,0.34667 -1.07466,0.90133 -0.416,0.55467 -0.416,1.42134 0,0.97066 0.55466,1.664 0.55467,0.65866 1.872,0.65866 0.65867,0 1.248,-0.17333 0.58934,-0.17333 1.04,-0.45067 0.45067,-0.27733 0.69334,-0.58933 0.27733,-0.34667 0.27733,-0.624 z"
         style="font-size:34.66666794px;fill:#a8d379;fill-opacity:1"
         id="path4575"
         inkscape:connector-curvature="0" />
      <path
         d="m 211.60188,113.16156 q 0,0.52 -0.34667,1.248 -0.312,0.69333 -0.69333,1.31733 -0.34667,-0.27733 -0.86667,-0.55466 -0.48533,-0.312 -1.10933,-0.55467 -0.624,-0.27733 -1.31734,-0.45067 -0.65866,-0.17333 -1.352,-0.17333 -0.38133,0 -0.79733,0.0693 -0.416,0.0347 -0.76267,0.208 -0.312,0.13867 -0.55467,0.45067 -0.208,0.27733 -0.208,0.76267 0,1.17866 2.53067,1.73333 1.04,0.208 2.04534,0.55467 1.04,0.312 1.83733,0.90133 0.832,0.58933 1.31733,1.49067 0.52,0.90133 0.52,2.25333 0,1.38667 -0.55466,2.46133 -0.52,1.07467 -1.456,1.80267 -0.936,0.728 -2.21867,1.10933 -1.248,0.38134 -2.73867,0.38134 -1.52533,0 -2.6,-0.24267 -1.04,-0.208 -1.73333,-0.52 -0.48534,-0.208 -1.07467,-0.58933 -0.55467,-0.416 -0.55467,-1.10934 0,-0.58933 0.34667,-1.21333 0.34667,-0.65867 0.79733,-1.352 0.312,0.27733 0.76267,0.58933 0.48533,0.27734 1.07467,0.55467 0.624,0.24267 1.31733,0.416 0.69333,0.17333 1.42133,0.17333 0.45067,0 0.93601,-0.0693 0.48533,-0.0693 0.832,-0.27733 0.38133,-0.208 0.624,-0.55467 0.24266,-0.34667 0.24266,-0.90133 0,-1.00534 -0.79733,-1.42134 -0.76267,-0.45066 -2.32267,-0.76266 -1.00533,-0.208 -1.94133,-0.55467 -0.936,-0.34667 -1.664,-0.90133 -0.728,-0.58934 -1.17867,-1.456 -0.416,-0.86667 -0.416,-2.11467 0,-1.248 0.55467,-2.184 0.55466,-0.936 1.456,-1.59467 0.936,-0.65867 2.14933,-0.97067 1.21333,-0.34666 2.53067,-0.34666 1.38667,0 2.46133,0.208 1.10934,0.208 1.90667,0.55466 1.52533,0.624 1.59467,1.62934 z"
         style="font-size:34.66666794px;fill:#a8d379;fill-opacity:1"
         id="path4577"
         inkscape:connector-curvature="0" />
      <path
         d="m 219.80704,127.86023 q -0.13867,0.0693 -0.624,0.104 -0.48534,0.0347 -1.04,0.0347 -0.69334,0 -1.248,-0.13866 -0.55467,-0.104 -0.97067,-0.416 -0.38133,-0.34667 -0.624,-0.90134 -0.208,-0.55466 -0.208,-1.42133 v -13.86667 q 0,-0.0347 0.52,-0.0693 0.52,-0.0693 1.07467,-0.0693 0.55466,0 1.10933,0.104 0.55467,0.104 1.00533,0.416 0.45067,0.27734 0.728,0.832 0.27734,0.52 0.27734,1.38667 z m 0.0347,-22.15201 q 0,1.10934 -0.76266,1.80267 -0.728,0.69333 -1.768,0.69333 -1.07467,0 -1.80267,-0.69333 -0.728,-0.69333 -0.728,-1.80267 0,-1.10933 0.728,-1.80266 0.728,-0.728 1.80267,-0.728 1.04,0 1.768,0.728 0.76266,0.69333 0.76266,1.80266 z"
         style="font-size:34.66666794px;fill:#a8d379;fill-opacity:1"
         id="path4579"
         inkscape:connector-curvature="0" />
      <path
         d="m 232.761,124.70556 q 0.86666,0 1.52533,-0.17333 0.65867,-0.208 1.17867,-0.48534 0.52,-0.27733 0.90133,-0.58933 0.38133,-0.34667 0.69333,-0.624 0.416,0.52 0.86667,1.352 0.45067,0.79733 0.45067,1.31733 0,0.76267 -0.86667,1.38667 -0.728,0.55467 -2.08,0.936 -1.31733,0.416 -3.12,0.416 -1.62934,0 -3.224,-0.416 -1.56,-0.416 -2.808,-1.456 -1.21334,-1.04 -1.976,-2.77333 -0.76267,-1.768 -0.76267,-4.43734 0,-2.184 0.65867,-3.744 0.69333,-1.59467 1.80266,-2.63467 1.144,-1.04 2.56534,-1.52533 1.42133,-0.48533 2.912,-0.48533 1.94133,0 3.29333,0.624 1.352,0.58933 2.184,1.62933 0.86667,1.00533 1.248,2.32267 0.38134,1.31733 0.38134,2.77333 0,0.208 0,0.48534 0,0.27733 -0.0347,0.58933 0,0.312 -0.0347,0.624 0,0.27733 -0.0347,0.45067 h -10.19201 q 0.13867,1.90666 1.17867,3.18933 1.04,1.248 3.29334,1.248 z m 1.56,-7.03733 q 0,-1.664 -0.65867,-2.704 -0.624,-1.04001 -2.288,-1.04001 -1.42134,0 -2.288,1.00534 -0.832,0.97067 -0.832,2.73867 z"
         style="font-size:34.66666794px;fill:#a8d379;fill-opacity:1"
         id="path4581"
         inkscape:connector-curvature="0" />
      <path
         d="m 246.54696,112.88422 q 0.208,-0.312 0.55467,-0.69333 0.34666,-0.38133 0.832,-0.69333 0.52,-0.312 1.10933,-0.52 0.624,-0.208 1.31733,-0.208 0.416,0 0.86667,0.0693 0.48533,0.0693 0.86667,0.27733 0.416,0.17334 0.65866,0.52 0.24267,0.312 0.24267,0.79734 0,0.76266 -0.38133,1.768 -0.38134,0.97067 -0.76267,1.664 -0.58933,-0.48533 -1.17867,-0.728 -0.58933,-0.27733 -1.38666,-0.27733 -1.07467,0 -1.80267,0.624 -0.728,0.624 -0.728,1.49066 v 10.67734 h -4.71467 v -16.39734 q 0.17333,-0.0347 0.416,-0.0693 0.208,-0.0347 0.48533,-0.0347 0.27734,-0.0347 0.65867,-0.0347 1.10933,0 1.90667,0.45067 0.832,0.416 1.04,1.31733 z"
         style="font-size:34.66666794px;fill:#a8d379;fill-opacity:1"
         id="path4583"
         inkscape:connector-curvature="0" />
    </g>
  </g>
</svg>
